<svg xmlns="http://www.w3.org/2000/svg" width="600" height="400" viewBox="0 0 600 400"><rect width="100%" height="100%" fill="#DDDDDD"/><path fill="#999999" d="m140.325 210.965-1.94-6.13h-9.98l-1.93 6.13h-5.76l9.78-28.44h5.84l9.75 28.44h-5.76Zm-6.98-21.78-3.53 11.17h7.17l-3.52-11.17h-.12Zm41.29 12.11h5.53l.04.12q.08 4.59-2.8 7.27-2.89 2.69-8 2.69-5.14 0-8.34-3.3-3.21-3.3-3.21-8.5v-5.64q0-5.18 3.13-8.5 3.12-3.32 8.12-3.32 5.28 0 8.25 2.71 2.97 2.7 2.89 7.37l-.04.12h-5.55q0-2.81-1.35-4.31-1.34-1.49-4.2-1.49-2.55 0-4.06 2.08-1.5 2.08-1.5 5.3v5.68q0 3.26 1.58 5.35 1.58 2.08 4.28 2.08 2.67 0 3.95-1.44 1.28-1.44 1.28-4.27Zm15.16-20.8v30.47h-5.7v-30.47h5.7Zm10.68 9.34v21.13h-5.7v-21.13h5.7Zm0-9.34v4.28h-5.7v-4.28h5.7Zm13.56 26.51q1.52 0 2.44-.89.92-.89.92-2.38h5.17l.06.12q.08 3.2-2.41 5.36t-6.18 2.16q-4.73 0-7.29-2.99-2.56-2.99-2.56-7.67v-.59q0-4.67 2.55-7.68 2.55-3 7.28-3 3.9 0 6.3 2.22 2.39 2.23 2.31 5.86l-.04.12h-5.19q0-1.64-.9-2.72-.9-1.09-2.48-1.09-2.27 0-3.2 1.76-.92 1.76-.92 4.53v.59q0 2.83.92 4.56.93 1.73 3.22 1.73Zm24.94 3.96-5.84-8.85h-1.56v8.85h-5.71v-30.47h5.71v17.29h1.4l4.9-7.95h6.61l-6.76 9.57 7.79 11.56h-6.54Zm38.4-28.44v4.4h-8.05v24.04h-5.7v-24.04h-8.01v-4.4h21.76Zm18.9 28.44h-5.7q-.31-.72-.54-1.52-.22-.8-.32-1.64-.88 1.54-2.31 2.55-1.44 1.02-3.43 1.02-3.32 0-5.12-1.71-1.8-1.71-1.8-4.66 0-3.1 2.4-4.81 2.39-1.71 6.98-1.71h3.18v-1.68q0-1.52-.8-2.36-.8-.84-2.36-.84-1.39 0-2.14.67-.75.67-.75 1.87l-5.51-.02-.02-.12q-.14-2.68 2.32-4.62 2.47-1.94 6.47-1.94 3.79 0 6.15 1.92 2.37 1.92 2.37 5.48v8.73q0 1.48.22 2.79t.71 2.6Zm-10.92-3.81q1.51 0 2.68-.74 1.17-.74 1.58-1.72v-2.99h-3.18q-1.82 0-2.75.91-.94.91-.94 2.2 0 1.05.7 1.7.7.64 1.91.64Zm26.02-17.48-.61 5.06-2.08-.06q-1.27 0-2.09.53-.83.53-1.25 1.48v14.28h-5.69v-21.13h5.29l.26 3.12q.74-1.66 1.92-2.59 1.18-.92 2.73-.92.43 0 .79.06.36.07.73.17Zm1.41 11.31v-.41q0-5 2.17-8.07 2.18-3.06 6.11-3.06 1.78 0 3.12.8 1.35.8 2.31 2.28l.45-2.69h4.92v21.03q0 4.12-2.71 6.38-2.7 2.26-7.53 2.26-1.6 0-3.39-.44-1.8-.44-3.32-1.21l1.05-4.25q1.31.62 2.67.94 1.35.33 2.96.33 2.34 0 3.44-.98 1.11-.98 1.11-3.05v-1.91q-.94 1.19-2.21 1.82-1.27.62-2.91.62-3.89 0-6.07-2.86-2.17-2.86-2.17-7.53Zm5.7-.41v.41q0 2.77.94 4.36.93 1.6 3.04 1.6 1.31 0 2.22-.48.91-.48 1.46-1.4v-9.18q-.55-.96-1.46-1.48-.91-.53-2.18-.53-2.09 0-3.05 1.86-.97 1.85-.97 4.84Zm27.11 10.8q-4.57 0-7.31-2.93-2.73-2.93-2.73-7.44v-.78q0-4.71 2.59-7.76 2.59-3.04 6.94-3.02 4.28 0 6.64 2.57 2.37 2.58 2.37 6.98v3.1h-12.62l-.04.12q.16 2.09 1.4 3.44t3.36 1.35q1.9 0 3.15-.39 1.25-.38 2.73-1.2l1.55 3.52q-1.29 1.05-3.38 1.75-2.09.69-4.65.69Zm-.51-17.54q-1.58 0-2.5 1.21-.92 1.21-1.13 3.19l.06.09h6.99v-.5q0-1.82-.85-2.9-.85-1.09-2.57-1.09Zm13.4-9.18h5.7v5.18h3.56v4h-3.56v10.76q0 1.23.51 1.76t1.37.53q.45 0 .77-.05t.75-.17l.49 4.12q-.86.3-1.68.44-.82.15-1.78.15-2.95 0-4.54-1.62-1.59-1.62-1.59-5.14v-10.78h-3.09v-4h3.09v-5.18Zm42.01 21.93v4.38h-19.41v-3.73l9.2-9.86q1.99-2.29 2.83-3.86.84-1.57.84-2.92 0-1.8-.97-2.94t-2.74-1.14q-1.98 0-3 1.33-1.03 1.34-1.03 3.57h-5.54l-.04-.12q-.1-3.85 2.53-6.51 2.62-2.67 7.08-2.67 4.39 0 6.9 2.29 2.51 2.28 2.51 6.09 0 2.58-1.41 4.76-1.42 2.17-4.68 5.71l-5.06 5.53.04.09h11.95Zm10.12-.62v5h-5.7v-5h5.7Zm24.37-5.39v.41q0 4.69-2.16 7.54-2.17 2.85-6.06 2.85-1.66 0-2.95-.62-1.29-.61-2.21-1.8v10.14h-5.68v-29.26h5.14l.33 2.5q.94-1.39 2.26-2.14 1.31-.75 3.07-.75 3.93 0 6.1 3.06 2.16 3.07 2.16 8.07Zm-5.7.41v-.41q0-2.99-1-4.84-.99-1.86-3.04-1.86-1.29 0-2.2.53-.91.52-1.44 1.5v9.26q.53.9 1.44 1.37.91.47 2.24.47 2.07 0 3.03-1.63.97-1.62.97-4.39Zm9.12-11.15h5.31l.26 3.02q1.05-1.62 2.6-2.52 1.54-.89 3.45-.89 3.21 0 5 2.01 1.8 2.01 1.8 6.31v13.2h-5.72v-13.18q0-2.13-.86-3.02-.86-.89-2.6-.89-1.13 0-2.03.46-.9.46-1.51 1.3v15.33h-5.7v-21.13Zm21.8 11.15v-.41q0-5 2.18-8.07 2.17-3.06 6.1-3.06 1.78 0 3.12.8 1.35.8 2.31 2.28l.45-2.69h4.92v21.03q0 4.12-2.7 6.38-2.71 2.26-7.53 2.26-1.61 0-3.4-.44-1.8-.44-3.32-1.21l1.05-4.25q1.31.62 2.67.94 1.36.33 2.96.33 2.34 0 3.44-.98 1.11-.98 1.11-3.05v-1.91q-.94 1.19-2.21 1.82-1.27.62-2.91.62-3.89 0-6.06-2.86-2.18-2.86-2.18-7.53Zm5.7-.41v.41q0 2.77.94 4.36.94 1.6 3.05 1.6 1.3 0 2.21-.48.91-.48 1.46-1.4v-9.18q-.55-.96-1.46-1.48-.91-.53-2.17-.53-2.09 0-3.06 1.86-.97 1.85-.97 4.84Z"/></svg>