<svg xmlns="http://www.w3.org/2000/svg" width="600" height="400" viewBox="0 0 600 400"><rect width="100%" height="100%" fill="#DDDDDD"/><path fill="#999999" d="M125.57 200.34H135l-3.6-9.86q-.27-.66-.56-1.56-.28-.9-.57-1.95-.27 1.05-.55 1.96-.29.91-.56 1.59l-3.59 9.82Zm7.53-18.45 11.64 29.64h-4.26q-.72 0-1.17-.36-.45-.36-.68-.89l-2.21-6.05h-12.28l-2.21 6.05q-.17.47-.64.86t-1.17.39h-4.3l11.66-29.64h5.62Zm45.04 22.65q.45 0 .8.35l2.17 2.36q-1.81 2.23-4.44 3.42-2.63 1.19-6.32 1.19-3.3 0-5.94-1.13-2.63-1.13-4.5-3.14-1.86-2.01-2.86-4.79-.99-2.79-.99-6.09 0-3.34 1.06-6.12 1.07-2.78 3.01-4.79 1.93-2.01 4.62-3.12 2.69-1.12 5.94-1.12 3.24 0 5.76 1.06 2.51 1.07 4.27 2.79l-1.85 2.57q-.16.24-.42.43-.25.18-.7.18-.31 0-.64-.17-.33-.18-.72-.43-.39-.26-.9-.57-.51-.31-1.19-.56-.67-.26-1.57-.43-.89-.18-2.06-.18-1.98 0-3.63.71t-2.84 2.05q-1.19 1.34-1.85 3.28-.65 1.94-.65 4.42 0 2.5.7 4.45.71 1.94 1.92 3.28 1.21 1.33 2.85 2.04 1.64.7 3.52.7 1.13 0 2.04-.12.92-.12 1.69-.39.76-.27 1.45-.69.69-.42 1.36-1.03.21-.19.43-.3.23-.11.48-.11Zm6.02-23.47h5.07v30.46h-5.07v-30.46Zm10.29 9.43h5.09v21.03h-5.09V190.5Zm5.79-6.13q0 .65-.27 1.23-.27.57-.71 1-.44.43-1.03.69-.6.26-1.27.26-.66 0-1.24-.26-.59-.26-1.02-.69-.43-.43-.69-1-.25-.58-.25-1.23 0-.68.25-1.27.26-.6.69-1.03.43-.43 1.02-.69.58-.25 1.24-.25.67 0 1.27.25.59.26 1.03.69.44.43.71 1.03.27.59.27 1.27Zm20.86 8.73-1.33 1.85q-.22.28-.44.45-.21.16-.62.16-.39 0-.76-.24-.37-.23-.88-.53-.52-.3-1.22-.53-.71-.24-1.76-.24-1.33 0-2.33.48-1.01.49-1.67 1.39-.67.9-1 2.18-.33 1.28-.33 2.9 0 1.68.36 3 .36 1.31 1.04 2.2.67.89 1.64 1.35.96.46 2.17.46t1.96-.29q.75-.3 1.26-.66.51-.36.89-.66.38-.29.85-.29.62 0 .92.47l1.46 1.84q-.84.99-1.83 1.65-.98.67-2.03 1.07-1.06.4-2.18.56-1.12.17-2.22.17-1.95 0-3.67-.73t-3.02-2.12q-1.29-1.4-2.03-3.42-.75-2.01-.75-4.6 0-2.31.66-4.29.67-1.98 1.96-3.43 1.29-1.44 3.2-2.26 1.91-.82 4.39-.82 2.35 0 4.13.76 1.77.76 3.18 2.17Zm3.37-12.03h5.06v17.44h.94q.52 0 .81-.13.3-.13.61-.54l5.22-6.46q.33-.43.73-.66.4-.22 1.04-.22h4.63l-6.54 7.81q-.7.92-1.52 1.41.43.31.77.72t.65.88l7.01 10.21h-4.57q-.6 0-1.03-.19-.43-.2-.71-.71l-5.38-7.98q-.28-.47-.59-.61-.31-.14-.92-.14h-1.15v9.63h-5.06v-30.46Zm53.38.82v4.53h-8.94v25.11h-5.51v-25.11h-8.94v-4.53h23.39Zm14.2 24.21v-3.55q-2.19.1-3.69.38-1.49.28-2.39.71-.91.43-1.3 1-.38.58-.38 1.25 0 1.33.78 1.91.79.57 2.06.57 1.56 0 2.7-.56 1.14-.56 2.22-1.71Zm-10.7-11.05-.9-1.62q3.63-3.32 8.73-3.32 1.85 0 3.31.6 1.45.61 2.46 1.68 1 1.08 1.52 2.58.53 1.49.53 3.28v13.28h-2.3q-.72 0-1.11-.22-.39-.21-.61-.87l-.45-1.51q-.8.71-1.56 1.26-.76.54-1.58.91-.82.37-1.75.56-.94.2-2.06.2-1.34 0-2.46-.36-1.13-.36-1.95-1.08-.82-.71-1.27-1.78-.45-1.07-.45-2.48 0-.8.26-1.59.27-.79.88-1.51.6-.71 1.56-1.35.97-.64 2.37-1.11 1.41-.47 3.27-.77 1.87-.29 4.26-.35v-1.23q0-2.12-.9-3.13-.9-1.02-2.6-1.02-1.23 0-2.04.29t-1.43.65q-.61.36-1.11.64-.5.29-1.12.29-.53 0-.9-.28-.37-.27-.6-.64Zm24.87-3.28.31 2.38q.98-1.89 2.33-2.97 1.36-1.07 3.2-1.07 1.46 0 2.34.63l-.33 3.8q-.1.36-.3.52-.19.15-.52.15-.31 0-.91-.1-.61-.1-1.18-.1-.84 0-1.5.24-.65.25-1.17.71-.53.46-.93 1.12-.4.65-.75 1.49v12.96h-5.06V190.5h2.97q.78 0 1.09.27.31.28.41 1Zm18.51 8.73q.94 0 1.64-.26.7-.25 1.16-.7.46-.45.7-1.09.23-.63.23-1.39 0-1.56-.93-2.47-.93-.92-2.8-.92-1.86 0-2.8.92-.93.91-.93 2.47 0 .73.24 1.37.23.64.69 1.1.46.46 1.17.71.71.26 1.63.26Zm5.72 11.97q0-.61-.37-1t-1-.61q-.64-.21-1.49-.31-.85-.11-1.8-.16-.96-.05-1.97-.09-1.02-.04-1.98-.16-.84.47-1.36 1.1-.52.64-.52 1.48 0 .55.27 1.03.28.49.88.83.61.35 1.57.55.97.19 2.36.19 1.41 0 2.44-.21 1.02-.22 1.69-.6.67-.38.97-.9.31-.52.31-1.14Zm-1-21.26h6.04v1.89q0 .9-1.08 1.11l-1.89.35q.43 1.08.43 2.37 0 1.56-.62 2.82-.63 1.26-1.74 2.15-1.1.88-2.61 1.36-1.51.48-3.25.48-.61 0-1.19-.06-.57-.06-1.12-.17-.99.6-.99 1.34 0 .63.59.93.58.3 1.54.42.97.12 2.2.15 1.23.03 2.52.14 1.29.1 2.52.36 1.23.25 2.19.81.97.55 1.55 1.5.59.96.59 2.45 0 1.4-.69 2.71t-1.99 2.34q-1.3 1.02-3.2 1.65-1.89.62-4.31.62-2.38 0-4.14-.46-1.77-.46-2.94-1.23-1.16-.77-1.74-1.77-.57-1.01-.57-2.1 0-1.47.89-2.47.89-.99 2.45-1.58-.84-.43-1.33-1.15-.5-.72-.5-1.89 0-.47.18-.97.17-.5.51-1 .34-.49.85-.93.51-.44 1.21-.79-1.6-.86-2.51-2.29-.91-1.44-.91-3.37 0-1.55.62-2.81.63-1.27 1.75-2.16 1.11-.89 2.64-1.36 1.53-.47 3.33-.47 1.35 0 2.54.27 1.19.28 2.18.81Zm13.24 7.38h9.55q0-.98-.27-1.85-.28-.87-.83-1.53-.56-.65-1.41-1.03-.85-.38-1.98-.38-2.19 0-3.45 1.25-1.26 1.25-1.61 3.54Zm12.91 3.06h-13.01q.12 1.62.57 2.8.45 1.18 1.19 1.94.74.77 1.75 1.15 1.02.38 2.25.38t2.12-.29q.89-.28 1.56-.63.66-.35 1.17-.64.5-.28.97-.28.64 0 .94.47l1.46 1.84q-.84.99-1.89 1.65-1.04.67-2.18 1.07-1.14.4-2.32.56-1.18.17-2.28.17-2.2 0-4.08-.73-1.89-.73-3.28-2.15-1.4-1.43-2.2-3.53-.8-2.1-.8-4.87 0-2.15.7-4.05.7-1.89 2-3.3 1.3-1.4 3.18-2.22 1.87-.82 4.23-.82 1.99 0 3.67.63 1.68.64 2.89 1.86 1.21 1.22 1.9 2.99.68 1.78.68 4.05 0 1.15-.24 1.55-.25.4-.95.4Zm12 10.21q-2.75 0-4.22-1.55-1.46-1.55-1.46-4.27v-11.75h-2.15q-.41 0-.7-.27-.29-.26-.29-.8v-2.01l3.38-.55 1.07-5.74q.1-.41.39-.63.29-.23.74-.23h2.62v6.62h5.62v3.61h-5.62v11.4q0 .98.48 1.53.49.56 1.33.56.47 0 .79-.11.31-.12.55-.24.23-.12.42-.24.18-.11.37-.11.22 0 .37.11.14.12.3.34l1.52 2.46q-1.11.93-2.54 1.4-1.44.47-2.97.47Zm21.28-11.5h9.02v-9.7q0-1.37.18-3.03l-9.2 12.73Zm13.42 0h3.73v2.93q0 .41-.26.71-.27.29-.76.29h-2.71v7.24h-4.4v-7.24h-12.51q-.51 0-.9-.31-.39-.32-.49-.79l-.54-2.57 14.05-18.75h4.79v18.49Zm6.54 8.38q0-.63.24-1.21.23-.57.64-.98.41-.41.99-.66.57-.24 1.23-.24.65 0 1.22.24.56.25.98.66.42.41.67.98.24.58.24 1.21 0 .66-.24 1.22-.25.57-.67.98-.42.41-.98.64-.57.24-1.22.24-.66 0-1.23-.24-.58-.23-.99-.64-.41-.41-.64-.98-.24-.56-.24-1.22Zm15.54-12.09v9.43q.86 1.04 1.88 1.47 1.01.43 2.2.43 1.15 0 2.07-.43.92-.43 1.57-1.31.65-.88.99-2.22.35-1.35.35-3.17 0-1.85-.29-3.13-.3-1.28-.85-2.08-.56-.8-1.35-1.17-.79-.37-1.79-.37-1.58 0-2.69.67-1.1.67-2.09 1.88Zm-.67-5.23.41 1.95q1.29-1.46 2.93-2.36 1.64-.9 3.85-.9 1.72 0 3.15.71 1.42.72 2.46 2.09 1.03 1.36 1.6 3.36.56 2 .56 4.58 0 2.36-.63 4.37-.64 2-1.82 3.48-1.18 1.48-2.85 2.31-1.67.83-3.74.83-1.76 0-3.01-.55-1.25-.54-2.24-1.5v8.61h-5.06v-27.9h3.09q.99 0 1.3.92Zm23.28 0 .35 1.66q.64-.64 1.35-1.18.7-.54 1.49-.92t1.69-.6q.9-.21 1.97-.21 1.72 0 3.06.58 1.33.59 2.22 1.64.89 1.06 1.35 2.52.46 1.47.46 3.23v13.39h-5.06v-13.39q0-1.92-.88-2.98t-2.69-1.06q-1.31 0-2.46.6-1.14.59-2.17 1.62v15.21h-5.06V190.5h3.09q.99 0 1.29.92Zm26.43 9.08q.94 0 1.64-.26.7-.25 1.16-.7.46-.45.69-1.09.24-.63.24-1.39 0-1.56-.93-2.47-.94-.92-2.8-.92-1.87 0-2.8.92-.93.91-.93 2.47 0 .73.23 1.37.24.64.7 1.1.46.46 1.17.71.71.26 1.63.26Zm5.72 11.97q0-.61-.37-1t-1.01-.61q-.63-.21-1.48-.31-.85-.11-1.81-.16-.95-.05-1.96-.09-1.02-.04-1.98-.16-.84.47-1.37 1.1-.52.64-.52 1.48 0 .55.28 1.03.28.49.88.83.6.35 1.57.55.96.19 2.36.19 1.41 0 2.44-.21 1.02-.22 1.69-.6.66-.38.97-.9.31-.52.31-1.14Zm-1.01-21.26h6.05v1.89q0 .9-1.09 1.11l-1.88.35q.43 1.08.43 2.37 0 1.56-.63 2.82-.62 1.26-1.73 2.15-1.11.88-2.61 1.36-1.51.48-3.25.48-.62 0-1.19-.06t-1.13-.17q-.98.6-.98 1.34 0 .63.58.93.59.3 1.55.42.96.12 2.19.15t2.52.14q1.3.1 2.53.36 1.23.25 2.19.81.96.55 1.55 1.5.58.96.58 2.45 0 1.4-.68 2.71-.69 1.31-1.99 2.34-1.31 1.02-3.2 1.65-1.9.62-4.32.62-2.37 0-4.14-.46-1.76-.46-2.93-1.23-1.17-.77-1.74-1.77-.58-1.01-.58-2.1 0-1.47.9-2.47.89-.99 2.45-1.58-.84-.43-1.34-1.15-.49-.72-.49-1.89 0-.47.18-.97.17-.5.51-1 .34-.49.85-.93.51-.44 1.21-.79-1.6-.86-2.51-2.29-.92-1.44-.92-3.37 0-1.55.63-2.81.63-1.27 1.74-2.16 1.12-.89 2.65-1.36 1.52-.47 3.33-.47 1.35 0 2.54.27 1.19.28 2.17.81Z"/></svg>